<svg id="Layer_1" data-name="Layer 1" xmlns="http://www.w3.org/2000/svg" viewBox="0 0 13.52855 10.33314"><defs><style>.cls-1{fill:#0e0e8e;}</style></defs><path class="cls-1" d="M7.78349,2.375,5.90711,5.625A.25.25,0,0,0,6.12361,6H9.87639a.25.25,0,0,0,.2165-.375L8.21651,2.375A.25.25,0,0,0,7.78349,2.375Z" transform="translate(-0.83784 -2.25)"/><path class="cls-1" d="M10.84012,3.326,7.78072,8.625A.25.25,0,0,0,7.99722,9H14.116a.25.25,0,0,0,.2165-.375l-3.0594-5.299A.25.25,0,0,0,10.84012,3.326Z" transform="translate(-0.83784 -2.25)"/><path class="cls-1" d="M5.1111,4.86531.87171,12.20814a.25.25,0,0,0,.21651.375H9.567a.25.25,0,0,0,.2165-.375L5.54411,4.86531A.25.25,0,0,0,5.1111,4.86531Z" transform="translate(-0.83784 -2.25)"/></svg>